PathFileType	4	(X/Y/Z)	C:\Users\dbl\Desktop\20210112\20210112\bx_n_0_503.trc
DataRate	CameraRate	NumFrames	NumMarkers	Units	OrigDataRate	OrigDataStartFrame	OrigNumFrames
50.00	50.00	       4	43	mm	50.00	42	       333
Frame#	Time	Top.Head			R.Acromium			L.Acromium			Sternum			R.ASIS			L.ASIS			V.Sacral			R.Thigh.Upper			R.Thigh.Front			R.Thigh.Rear			R.Knee.Lat			R.Knee.Med			R.Shank.Upper			R.Shank.Front			R.Shank.Rear			R.Ankle.Lat			R.Midfoot.Lat			R.Toe.Lat			R.Toe.Tip			R.Toe.Med			R.Ankle.Med			R.Midfoot.Sup			R.Heel			L.Thigh.Upper			L.Thigh.Front			L.Thigh.Rear			L.Knee.Lat			L.Knee.Med			L.Shank.Upper			L.Shank.Front			L.Shank.Rear			L.Ankle.Lat			L.Midfoot.Lat			L.Toe.Lat			L.Toe.Tip			L.Toe.Med			L.Ankle.Med			L.Midfoot.Sup			L.Heel			origin1 front left			origin2 front right			origin 3 back right			origin 4 back leftt			
		X1	Y1	Z1	X2	Y2	Z2	X3	Y3	Z3	X4	Y4	Z4	X5	Y5	Z5	X6	Y6	Z6	X7	Y7	Z7	X8	Y8	Z8	X9	Y9	Z9	X10	Y10	Z10	X11	Y11	Z11	X12	Y12	Z12	X13	Y13	Z13	X14	Y14	Z14	X15	Y15	Z15	X16	Y16	Z16	X17	Y17	Z17	X18	Y18	Z18	X19	Y19	Z19	X20	Y20	Z20	X21	Y21	Z21	X22	Y22	Z22	X23	Y23	Z23	X24	Y24	Z24	X25	Y25	Z25	X26	Y26	Z26	X27	Y27	Z27	X28	Y28	Z28	X29	Y29	Z29	X30	Y30	Z30	X31	Y31	Z31	X32	Y32	Z32	X33	Y33	Z33	X34	Y34	Z34	X35	Y35	Z35	X36	Y36	Z36	X37	Y37	Z37	X38	Y38	Z38	X39	Y39	Z39	X40	Y40	Z40	X41	Y41	Z41	X42	Y42	Z42	X43	Y43	Z43	

42	0.820	-663.69861	119.91308	1847.12781	-669.52612	-71.66936	1535.68237	-702.29462	290.02954	1526.09229	-579.15076	113.15629	1353.36414	-565.74139	-3.45728	1053.84583	-579.81580	244.34866	1064.00464	-773.48303	93.12561	1056.59155	-634.22650	-72.04843	870.70612	-562.40717	-5.17917	800.73566	-660.14893	-62.18179	756.24017	-692.63788	-35.90435	615.03339	-679.88226	73.58311	573.21844	-703.26605	-33.28638	568.77765	-656.45355	13.61268	517.85547	-750.80206	-45.08474	491.17865	-759.34381	-19.64328	207.68645	-649.14740	-68.18786	161.02652	-606.32306	-72.62454	158.11966	-549.22839	-24.65455	164.79865	-600.31000	27.83248	167.69736	-718.41290	69.45538	217.07619	-675.05627	52.47928	159.90428	-793.44598	39.23590	175.70755	-661.79108	286.76968	872.15698	-568.06726	222.30887	791.06561	-672.97717	270.59790	742.56189	-710.75421	253.17845	642.55627	-677.97321	143.95102	574.86554	-711.48401	247.87151	576.10468	-662.08710	204.05591	532.64270	-752.90302	258.91922	502.68454	-764.15613	227.12666	206.14626	-652.58441	291.96841	156.65785	-615.44391	297.83029	158.57478	-552.24402	243.59225	166.00693	-588.87085	207.75359	173.99258	-713.54602	150.29031	216.37206	-674.99341	165.87587	156.88889	-795.08423	179.69092	185.20337	-528.20587	304.14645	146.44513	-517.84509	-73.05038	143.31133	-875.94897	-78.80499	141.33154	-882.53772	296.16806	144.71298	
43	0.840	-663.18781	120.23213	1847.16089	-669.22333	-71.46814	1535.84204	-701.89758	290.21716	1526.17517	-579.00256	113.25578	1353.39478	-565.92542	-3.39364	1053.85278	-579.82092	244.40898	1064.02673	-773.54694	93.32683	1056.56226	-634.38965	-71.95579	870.78558	-562.46674	-5.15410	800.80963	-660.22412	-62.09011	756.22589	-692.65326	-35.84539	615.02173	-679.90900	73.66090	573.29431	-703.37952	-33.19242	568.78632	-656.56317	13.67153	517.83008	-750.86963	-45.03053	491.26761	-759.36676	-19.71864	207.63437	-649.13245	-68.19521	161.02443	-606.31665	-72.58398	158.11400	-549.21069	-24.65839	164.79312	-600.35907	27.89945	167.67686	-718.42523	69.45380	217.07620	-675.07916	52.43216	159.84166	-793.43573	39.19128	175.72855	-661.86401	286.88327	872.13403	-568.14063	222.35718	791.07281	-673.06879	270.73657	742.62201	-710.75269	253.27972	642.59009	-678.00385	144.01431	574.88733	-711.56061	248.04497	576.07617	-662.09454	204.10974	532.66107	-752.92438	258.93875	502.68665	-764.17871	227.13681	206.11543	-652.56696	291.95767	156.67395	-615.41791	297.83008	158.57747	-552.22290	243.59563	165.97414	-588.90918	207.73892	174.00024	-713.52728	150.31238	216.32509	-674.95490	165.86955	156.92940	-795.11121	179.70531	185.25014	-528.22864	304.13669	146.42569	-517.83820	-73.02396	143.29807	-875.94604	-78.80901	141.29274	-882.52563	296.15512	144.70947	
44	0.860	-662.64813	120.51678	1847.18945	-668.87128	-71.25948	1536.03601	-701.46021	290.38828	1526.29346	-578.83325	113.33145	1353.38354	-566.08795	-3.35163	1053.86499	-579.83356	244.46739	1064.04285	-773.62555	93.48684	1056.51208	-634.56616	-71.83444	870.84265	-562.54358	-5.10926	800.83649	-660.30170	-62.02515	756.22284	-692.70465	-35.77578	615.02826	-679.93341	73.73096	573.33203	-703.52277	-33.12361	568.84442	-656.61780	13.69990	517.83215	-750.97028	-44.97083	491.38287	-759.39020	-19.80342	207.59451	-649.11786	-68.20111	161.01907	-606.31531	-72.51486	158.08978	-549.18439	-24.66642	164.79492	-600.39728	27.90646	167.70558	-718.42505	69.44514	217.09875	-675.08545	52.35198	159.77211	-793.42352	39.16743	175.76036	-661.96899	287.02466	872.11176	-568.24884	222.42023	791.11346	-673.13873	270.92560	742.72382	-710.76575	253.39597	642.59412	-678.01636	144.08440	574.91272	-711.60449	248.21722	576.07019	-662.10358	204.14154	532.67834	-752.94073	258.96405	502.69766	-764.19977	227.13034	206.08426	-652.59399	291.96222	156.72304	-615.41028	297.83020	158.58556	-552.21313	243.58041	165.94913	-588.89264	207.72090	174.01144	-713.51508	150.32767	216.29210	-674.92310	165.84593	156.95790	-795.13538	179.73253	185.29976	-528.24579	304.13126	146.43781	-517.85254	-72.97386	143.26082	-875.93506	-78.80337	141.25783	-882.50873	296.12216	144.67865	
45	0.880	-662.05640	120.74171	1847.20654	-668.44000	-71.06440	1536.26611	-701.00385	290.54044	1526.44885	-578.63690	113.40066	1353.35254	-566.22699	-3.32462	1053.88135	-579.85522	244.52452	1064.06531	-773.73254	93.61814	1056.46130	-634.75031	-71.71401	870.86707	-562.65277	-5.03198	800.82330	-660.39069	-61.98813	756.24664	-692.79932	-35.68114	615.04712	-679.99420	73.82333	573.33160	-703.67798	-33.07543	568.91907	-656.65643	13.72611	517.84644	-751.08337	-44.90366	491.45227	-759.40973	-19.85432	207.57765	-649.11084	-68.20252	161.01390	-606.32587	-72.46208	158.07295	-549.16193	-24.67711	164.81012	-600.39685	27.85464	167.76347	-718.40588	69.43565	217.12379	-675.08795	52.24772	159.70192	-793.40631	39.18473	175.78366	-662.10309	287.15247	872.11884	-568.38690	222.49052	791.16431	-673.20288	271.16693	742.84741	-710.81805	253.49104	642.53650	-678.02191	144.15729	574.94916	-711.64111	248.33972	576.08752	-662.12042	204.15216	532.67578	-752.95209	258.99811	502.71857	-764.20581	227.11368	206.06165	-652.62958	291.98129	156.75566	-615.41809	297.82751	158.58482	-552.21429	243.55507	165.93672	-588.89349	207.71483	173.97612	-713.51410	150.31470	216.31444	-674.90771	165.82431	156.96681	-795.13403	179.76645	185.32646	-528.24854	304.12817	146.46393	-517.87408	-72.93105	143.22505	-875.92267	-78.79384	141.24246	-882.49963	296.08533	144.63791	
